<svg xmlns="http://www.w3.org/2000/svg" xmlns:xlink="http://www.w3.org/1999/xlink" width="1040" height="494.2"><rect width="1040" height="494.2" rx="5" ry="5" class="a"/><svg y="0%" x="0%"><circle cx="20" cy="20" r="6" fill="#ff5f58"/><circle cx="40" cy="20" r="6" fill="#ffbd2e"/><circle cx="60" cy="20" r="6" fill="#18c132"/></svg><svg height="434.2" viewBox="0 0 100 43.42" width="1000" x="15" xmlns="http://www.w3.org/2000/svg" xmlns:xlink="http://www.w3.org/1999/xlink" y="50"><style>@keyframes m{0%{transform:translateX(0)}4.3%{transform:translateX(-100px)}17.4%{transform:translateX(-200px)}21.7%{transform:translateX(-300px)}30.4%{transform:translateX(-400px)}34.8%{transform:translateX(-500px)}43.5%{transform:translateX(-600px)}47.8%{transform:translateX(-700px)}60.9%{transform:translateX(-800px)}78.3%{transform:translateX(-900px)}82.6%{transform:translateX(-1000px)}87%{transform:translateX(-1100px)}95.7%{transform:translateX(-1200px)}to{transform:translateX(-1300px)}}.a{fill:#282d35}.g,.h,.i,.j,.k{fill:#b9c0cb;white-space:pre}.h,.i,.j,.k{fill:#66c2cd}.i,.j,.k{fill:#6f7783}.j,.k{fill:#dbab79}.k{fill:#d290e4}</style><g font-family="Monaco,Consolas,Menlo,'Bitstream Vera Sans Mono','Powerline Symbols',monospace" font-size="1.67"><defs><symbol id="1"><text y="1.67" style="white-space:pre" fill="#a8cc8c">You:</text><text x="5.01" y="1.67" class="g">We</text><text x="8.016" y="1.67" class="g">have</text><text x="13.026" y="1.67" class="g">a</text><text x="15.03" y="1.67" class="g">crash</text><text x="21.042" y="1.67" class="g">in</text><text x="24.048" y="1.67" class="g">production</text><text x="35.07" y="1.67" class="g">from</text><text x="40.08" y="1.67" class="g">3</text><text x="42.084" y="1.67" class="g">hours</text><text x="48.096" y="1.67" class="g">ago.</text><text x="53.106" y="1.67" class="g">The</text><text x="57.114" y="1.67" class="g">trace</text><text x="63.126" y="1.67" class="g">says</text><text x="68.136" y="1.67" class="g">`NullPointerException</text><text x="90.18" y="1.67" class="g">in</text><text x="93.186" y="1.67" class="g">Payment</text></symbol><symbol id="2"><text y="1.67" class="g">Service.java`.</text></symbol><symbol id="3"><text y="1.67" class="h">⚙️</text><text x="3.006" y="1.67" class="h">Agent:</text><text x="10.02" y="1.67" class="g">Temporal</text><text x="19.038" y="1.67" class="g">Debug</text><text x="25.05" y="1.67" class="g">Skill</text><text x="31.062" y="1.67" class="g">activated.</text></symbol><symbol id="4"><text y="1.67" class="g">Resolving</text><text x="10.02" y="1.67" class="g">&quot;3</text><text x="13.026" y="1.67" class="g">hours</text><text x="19.038" y="1.67" class="g">ago&quot;</text><text x="24.048" y="1.67" class="g">to</text><text x="27.054" y="1.67" class="g">commit...</text></symbol><symbol id="5"><text y="1.67" class="i">$</text><text x="2.004" y="1.67" class="i">git</text><text x="6.012" y="1.67" class="i">log</text><text x="10.02" y="1.67" class="i">--before=&quot;3</text><text x="22.044" y="1.67" class="i">hours</text><text x="28.056" y="1.67" class="i">ago&quot;</text><text x="33.066" y="1.67" class="i">-1</text><text x="36.072" y="1.67" class="i">--format=&quot;%H&quot;</text></symbol><symbol id="6"><text y="1.67" class="g">Target</text><text x="7.014" y="1.67" class="g">commit:</text><text x="15.03" y="1.67" class="j">a1b2c3d</text></symbol><symbol id="7"><text y="1.67" class="g">Creating</text><text x="9.018" y="1.67" class="g">isolated</text><text x="18.036" y="1.67" class="g">historical</text><text x="29.058" y="1.67" class="g">workspace...</text></symbol><symbol id="8"><text y="1.67" class="i">$</text><text x="2.004" y="1.67" class="i">git</text><text x="6.012" y="1.67" class="i">worktree</text><text x="15.03" y="1.67" class="i">add</text><text x="19.038" y="1.67" class="i">/tmp/temporal-debug-a1b2c3d</text><text x="47.094" y="1.67" class="i">a1b2c3d</text></symbol><symbol id="9"><text y="1.67" class="g">Reading</text><text x="8.016" y="1.67" class="g">PaymentService.java</text><text x="28.056" y="1.67" class="g">from</text><text x="33.066" y="1.67" class="g">historical</text><text x="44.088" y="1.67" class="g">snapshot...</text></symbol><symbol id="10"><text y="1.67" class="k">[Analysis</text><text x="10.02" y="1.67" class="k">Complete]</text></symbol><symbol id="11"><text y="1.67" class="g">Cleaning</text><text x="9.018" y="1.67" class="g">up</text><text x="12.024" y="1.67" class="g">worktree...</text></symbol><symbol id="12"><text y="1.67" class="i">$</text><text x="2.004" y="1.67" class="i">git</text><text x="6.012" y="1.67" class="i">worktree</text><text x="15.03" y="1.67" class="i">remove</text><text x="22.044" y="1.67" class="i">--force</text><text x="30.06" y="1.67" class="i">/tmp/temporal-debug-a1b2c3d</text></symbol><symbol id="13"><text y="1.67" class="h">⚙️</text><text x="3.006" y="1.67" class="h">Agent:</text><text x="10.02" y="1.67" class="g">Found</text><text x="16.032" y="1.67" class="g">the</text><text x="20.04" y="1.67" class="g">root</text><text x="25.05" y="1.67" class="g">cause!</text></symbol><symbol id="a"><path fill="transparent" d="M0 0h100v20H0z"/></symbol></defs><path class="a" d="M0 0h100v43.42H0z"/><g style="animation-duration:11.5s;animation-iteration-count:infinite;animation-name:m;animation-timing-function:steps(1,end)"><svg width="1400"><svg><use xlink:href="#a"/></svg><svg x="100"><use xlink:href="#a"/><use xlink:href="#1"/><use xlink:href="#2" y="2.171"/></svg><svg x="200"><use xlink:href="#a"/><use xlink:href="#1"/><use xlink:href="#2" y="2.171"/><use xlink:href="#3" y="6.513"/></svg><svg x="300"><use xlink:href="#a"/><use xlink:href="#1"/><use xlink:href="#2" y="2.171"/><use xlink:href="#3" y="6.513"/><use xlink:href="#4" y="8.684"/></svg><svg x="400"><use xlink:href="#a"/><use xlink:href="#1"/><use xlink:href="#2" y="2.171"/><use xlink:href="#3" y="6.513"/><use xlink:href="#4" y="8.684"/><use xlink:href="#5" y="10.855"/></svg><svg x="500"><use xlink:href="#a"/><use xlink:href="#1"/><use xlink:href="#2" y="2.171"/><use xlink:href="#3" y="6.513"/><use xlink:href="#4" y="8.684"/><use xlink:href="#5" y="10.855"/><use xlink:href="#6" y="13.026"/></svg><svg x="600"><use xlink:href="#a"/><use xlink:href="#1"/><use xlink:href="#2" y="2.171"/><use xlink:href="#3" y="6.513"/><use xlink:href="#4" y="8.684"/><use xlink:href="#5" y="10.855"/><use xlink:href="#6" y="13.026"/><use xlink:href="#7" y="17.368"/></svg><svg x="700"><use xlink:href="#a"/><use xlink:href="#1"/><use xlink:href="#2" y="2.171"/><use xlink:href="#3" y="6.513"/><use xlink:href="#4" y="8.684"/><use xlink:href="#5" y="10.855"/><use xlink:href="#6" y="13.026"/><use xlink:href="#7" y="17.368"/><use xlink:href="#8" y="19.539"/></svg><svg x="800"><use xlink:href="#a"/><use xlink:href="#1"/><use xlink:href="#2" y="2.171"/><use xlink:href="#3" y="6.513"/><use xlink:href="#4" y="8.684"/><use xlink:href="#5" y="10.855"/><use xlink:href="#6" y="13.026"/><use xlink:href="#7" y="17.368"/><use xlink:href="#8" y="19.539"/><use xlink:href="#9" y="21.71"/></svg><svg x="900"><use xlink:href="#a"/><use xlink:href="#1"/><use xlink:href="#2" y="2.171"/><use xlink:href="#3" y="6.513"/><use xlink:href="#4" y="8.684"/><use xlink:href="#5" y="10.855"/><use xlink:href="#6" y="13.026"/><use xlink:href="#7" y="17.368"/><use xlink:href="#8" y="19.539"/><use xlink:href="#9" y="21.71"/><use xlink:href="#10" y="26.052"/></svg><svg x="1000"><use xlink:href="#a"/><use xlink:href="#1"/><use xlink:href="#2" y="2.171"/><use xlink:href="#3" y="6.513"/><use xlink:href="#4" y="8.684"/><use xlink:href="#5" y="10.855"/><use xlink:href="#6" y="13.026"/><use xlink:href="#7" y="17.368"/><use xlink:href="#8" y="19.539"/><use xlink:href="#9" y="21.71"/><use xlink:href="#10" y="26.052"/><use xlink:href="#11" y="28.223"/></svg><svg x="1100"><use xlink:href="#a"/><use xlink:href="#1"/><use xlink:href="#2" y="2.171"/><use xlink:href="#3" y="6.513"/><use xlink:href="#4" y="8.684"/><use xlink:href="#5" y="10.855"/><use xlink:href="#6" y="13.026"/><use xlink:href="#7" y="17.368"/><use xlink:href="#8" y="19.539"/><use xlink:href="#9" y="21.71"/><use xlink:href="#10" y="26.052"/><use xlink:href="#11" y="28.223"/><use xlink:href="#12" y="30.394"/></svg><svg x="1200"><use xlink:href="#a"/><use xlink:href="#1"/><use xlink:href="#2" y="2.171"/><use xlink:href="#3" y="6.513"/><use xlink:href="#4" y="8.684"/><use xlink:href="#5" y="10.855"/><use xlink:href="#6" y="13.026"/><use xlink:href="#7" y="17.368"/><use xlink:href="#8" y="19.539"/><use xlink:href="#9" y="21.71"/><use xlink:href="#10" y="26.052"/><use xlink:href="#11" y="28.223"/><use xlink:href="#12" y="30.394"/><use xlink:href="#13" y="34.736"/></svg><svg x="1300"><use xlink:href="#a"/><use xlink:href="#2"/><use xlink:href="#3" y="4.342"/><use xlink:href="#4" y="6.513"/><use xlink:href="#5" y="8.684"/><use xlink:href="#6" y="10.855"/><use xlink:href="#7" y="15.197"/><use xlink:href="#8" y="17.368"/><use xlink:href="#9" y="19.539"/><use xlink:href="#10" y="23.881"/><use xlink:href="#11" y="26.052"/><use xlink:href="#12" y="28.223"/><use xlink:href="#13" y="32.565"/><text y="38.577" class="g">In</text><text x="3.006" y="38.577" class="g">commit</text><text x="10.02" y="38.577" class="j">a1b2c3d</text><text x="18.036" y="38.577" class="g">(3</text><text x="21.042" y="38.577" class="g">hours</text><text x="27.054" y="38.577" class="g">ago),</text><text x="33.066" y="38.577" class="g">`PaymentService.java:42`</text><text x="58.116" y="38.577" class="g">accesses</text><text x="67.134" y="38.577" class="g">`user.getEmail()`</text><text x="85.17" y="38.577" class="g">without</text><text x="93.186" y="38.577" class="g">a</text><text x="95.19" y="38.577" class="g">null</text><text y="40.748" class="g">check.</text><text x="7.014" y="40.748" class="g">This</text><text x="12.024" y="40.748" class="g">was</text><text x="16.032" y="40.748" class="g">introduced</text><text x="27.054" y="40.748" class="g">in</text><text x="30.06" y="40.748" class="g">commit</text><text x="37.074" y="40.748" class="g">`f8e9d0a`.</text></svg></svg></g></g></svg></svg>